<?xml version="1.0" encoding="UTF-8" standalone="no"?>
<svg width="128" xmlns="http://www.w3.org/2000/svg" xmlns:xlink="http://www.w3.org/1999/xlink" height="128">
 <defs>
  <linearGradient id="linearGradient17207" y2=".59045" x2=".70860" y1="-.26175" x1="-1.9029">
   <stop id="stop14505" stop-color="#fff" offset="0"/>
   <stop id="stop14507" stop-color="#fff" stop-opacity="0" offset="1"/>
  </linearGradient>
 </defs>
 <g fill-rule="evenodd">
  <path id="path12688" d="m7.7296 64.882c8.5134 0.081306 18.3-1.8734 20.252-10.268 1.9077-8.2015 0.91295-50.654 31.15-51.645 29.016-0.95116 36.592 23.32 39.086 36.612 8.0163 42.706-2.5234 71.462-63.259 54.153-6.888-3.9768-11.022-4.1641-15.705-10.479 4.1206 0.11259 6.2768 0.38872 6.8952-3.6722-5.4866 0.22398-10.855-0.27739-12.948-9.8053 10.002 1.3822 14.595-2.9453 18.862-9.5029-5.0646 7.9569-11.028 12.421-24.333 4.6075z"/>
  <path id="path12690" d="m28.555 57.189c4.4208-5.9145 5.7857-13.277 6.9232-21.94 3.06 8.4541 3.2996 16.882-2.2399 24.18"/>
  <g stroke="#000">
   <path id="path12692" d="m3.6004 118.62c2.7927-7.7114 4.0292-18.026 13.643-22.806l44.594-13.541 46.574 12.853c8.1954 2.9422 12.069 14.888 15.987 23.923-2.5522 1.8322-4.752 4.5457-7.7871 5.1707h-105.68c-3.432-1.2735-5.1702-3.5632-7.3304-5.5996z"/>
   <g fill="#fff">
    <path id="path12694" d="m48.703 72.396c0.23771 5.7693 0.87025 11.094-1.8326 15.984l6.5159 36.041 14.966-0.2036 11.606-38.383-1.0181-16.494-30.238 3.0543z"/>
    <path id="path12696" d="m38.11 41.413c0.58198 9.119 0.83721 18.238 2.8797 27.357 0 0 9.2868 10.442 14.47 12.742 5.1835 2.301 6.6343 1.989 11.519-0.071983 4.8844-2.061 16.198-12.095 16.198-12.095 4.8626-19.716 6.5261-38.38-15.118-49.386l-15.694 23.325-0.432-9.0709-4.0315 6.9112c-2.7286-3.3124-7.9646-2.2117-9.7909 0.28796z"/>
   </g>
  </g>
  <path id="path12698" d="m93.103 63.298c-4.1127 9.7072-15.214 13.559-25.758 11.81 10.214 8.0444 25.42 4.274 29.016-9.5703"/>
  <path id="path13605" fill="url(#linearGradient17207)" d="m38.058 41.461c0.96209 8.972 1.4557 17.788 3.4799 27.114 5.1577 5.3491 15.701 17.02 21.958 13.462 3.9872-0.90865 5.1188-2.2253 7.4088-3.3764-13.766 4.0898-19.126-3.1803-26.222-11.508l-4.6841-27.223-1.9402 1.5308z"/>
  <g stroke="#000" fill="none">
   <path id="path14511" d="m79.699 86.665l-11.25 37.721"/>
   <path id="path14513" d="m46.289 86.861l6.8877 37.628"/>
  </g>
 </g>
</svg>
